<svg width="136" height="32" viewBox="0 0 136 32" fill="none" xmlns="http://www.w3.org/2000/svg">
<g clip-path="url(#clip0_534_4464)">
<path d="M0 15.6726L15.6726 0V7.1244L3.57785 19.2202L0 15.6726Z" fill="url(#paint0_linear_534_4464)"/>
<path d="M12.0198 27.7727L27.6924 12.1V19.2244L15.5976 31.3203L12.0198 27.7727Z" fill="url(#paint1_linear_534_4464)"/>
<path d="M19.1651 15.6476L3.49243 31.3203V24.1959L15.5883 12.1L19.1651 15.6476Z" fill="url(#paint2_linear_534_4464)"/>
<path d="M38.743 16.9065H45.2466V13.7977H38.743V11.1951H45.8744V8H38.743H37.9695H35V23H37.9695H38.743H46V19.8049H38.743V16.9065Z" fill="#0B0B0B"/>
<path d="M57.4272 8.58197C56.5994 8.18662 55.6881 7.98746 54.7671 8.00061H48V23H51.8702V17.6222H54.7671C55.687 17.6356 56.5975 17.4401 57.4272 17.0511C58.2036 16.685 58.8565 16.1086 59.3082 15.3904C59.7688 14.6647 59.9994 13.808 60 12.8202C60 11.8052 59.7694 10.9414 59.3082 10.2287C58.8486 9.52037 58.1975 8.9504 57.4272 8.58197ZM55.8702 13.9236C55.6923 14.2114 55.4334 14.4429 55.1244 14.5903C54.804 14.7407 54.4525 14.8169 54.0971 14.8128H51.8702V10.8137H54.0971C54.4525 10.8096 54.804 10.8858 55.1244 11.0363C55.4356 11.1853 55.695 11.4207 55.8702 11.7131C56.0677 12.0514 56.1661 12.4364 56.1545 12.8258C56.1666 13.2105 56.0681 13.5909 55.8702 13.9236Z" fill="#0B0B0B"/>
<path d="M66 8H62V23H66V8Z" fill="#0B0B0B"/>
<path d="M77.0169 19.4254C76.413 19.6476 75.7694 19.7556 75.1221 19.7435C74.5431 19.7507 73.9683 19.6496 73.4302 19.4461C72.9297 19.253 72.4789 18.9594 72.1085 18.5854C71.7265 18.1975 71.4299 17.7408 71.2362 17.2421C70.8195 16.1142 70.8195 14.8848 71.2362 13.7569C71.4292 13.258 71.7248 12.8008 72.1057 12.4119C72.4748 12.0388 72.9262 11.7482 73.4274 11.561C73.9672 11.3643 74.5413 11.2667 75.1192 11.2735C75.762 11.2602 76.4007 11.3724 76.9961 11.6033C77.5049 11.806 77.9607 12.1127 78.331 12.5017L80.915 10.0462C80.173 9.39872 79.3113 8.88782 78.3735 8.53944C77.4112 8.18004 76.327 8.00035 75.1211 8.00035C74.0254 7.9906 72.9383 8.18566 71.9216 8.57448C70.9633 8.94133 70.0863 9.4769 69.3366 10.1531C68.598 10.8216 68.0115 11.6274 67.6137 12.5206C66.7954 14.4293 66.7954 16.5671 67.6137 18.4757C68.0121 19.3731 68.5987 20.1836 69.3376 20.8576C70.0867 21.5398 70.9686 22.0761 71.9339 22.4363C72.9631 22.8187 74.0597 23.0099 75.1645 22.9996C76.4284 22.9996 77.5298 22.822 78.4689 22.4668C79.4001 22.1163 80.2575 21.6093 81 20.9699L78.4151 18.5099C78.0254 18.9092 77.548 19.2218 77.0169 19.4254Z" fill="#0B0B0B"/>
<path d="M94.7182 10.143C93.9917 9.45734 93.1305 8.91936 92.1854 8.56081C90.1309 7.81306 87.8653 7.81306 85.8108 8.56081C84.3784 9.10393 83.1509 10.0558 82.2917 11.2899C81.4324 12.5239 80.9821 13.9816 81.0005 15.4692C80.9918 16.489 81.1999 17.4997 81.612 18.4386C82.0073 19.3395 82.5851 20.1548 83.3113 20.8365C84.0441 21.5221 84.9082 22.0629 85.8552 22.4285C87.8959 23.1871 90.1543 23.1906 92.1974 22.4383C93.1408 22.0776 93.9989 21.5361 94.72 20.8463C95.8129 19.7719 96.5547 18.4104 96.8531 16.9314C97.1514 15.4523 96.9932 13.9211 96.3981 12.5284C96.0068 11.6336 95.4359 10.8229 94.7182 10.143ZM92.6285 17.7141C92.3088 18.3345 91.8102 18.852 91.1928 19.2042C90.5761 19.5578 89.8444 19.7346 88.9977 19.7346C88.4134 19.7433 87.8329 19.6428 87.2882 19.4385C86.7924 19.2486 86.3457 18.9561 85.9792 18.5817C85.6064 18.1946 85.3226 17.7355 85.1466 17.2347C84.9495 16.6659 84.8531 16.069 84.8617 15.4692C84.8617 14.626 85.0307 13.8846 85.3687 13.2448C85.6862 12.6261 86.1853 12.1116 86.8034 11.7655C87.4201 11.4184 88.1518 11.2449 88.9986 11.2449C89.5838 11.2361 90.1649 11.3401 90.7081 11.5508C91.2024 11.7465 91.6482 12.0413 92.0161 12.4157C92.3878 12.7995 92.6715 13.2548 92.8487 13.7519C93.0446 14.3034 93.141 14.8834 93.1336 15.4665C93.1342 16.3251 92.9658 17.0743 92.6285 17.7141Z" fill="#0B0B0B"/>
<path d="M110.586 10.0742C109.807 9.40046 108.896 8.87887 107.903 8.53937C106.821 8.17112 105.677 7.98865 104.527 8.00055H98V22.9995H104.572C105.711 23.0107 106.843 22.8278 107.914 22.4598C108.902 22.1186 109.81 21.5971 110.586 20.9249C111.347 20.2608 111.952 19.4534 112.363 18.5545C113.212 16.5952 113.212 14.3983 112.363 12.4391C111.951 11.5423 111.346 10.7368 110.586 10.0742ZM108.373 17.8079C108.035 18.4304 107.499 18.9368 106.841 19.2556C106.178 19.5802 105.4 19.7425 104.506 19.7425H102.001V11.2567H104.506C105.399 11.2567 106.174 11.419 106.831 11.7436C107.481 12.0633 108.014 12.561 108.361 13.1718C108.727 13.7993 108.91 14.5647 108.91 15.468C108.91 16.3856 108.731 17.1643 108.373 17.8042V17.8079Z" fill="#0B0B0B"/>
<path d="M118.744 19.8049V16.9065H125.248V13.7977H118.744V11.1951H125.874V8H118.744H117.97H115V23H117.97H118.744H126V19.8049H118.744Z" fill="#0B0B0B"/>
</g>
<defs>
<linearGradient id="paint0_linear_534_4464" x1="0" y1="9.61012" x2="15.6726" y2="9.61012" gradientUnits="userSpaceOnUse">
<stop stop-color="#26008F"/>
<stop offset="0.79" stop-color="#CB2376"/>
</linearGradient>
<linearGradient id="paint1_linear_534_4464" x1="59.8742" y1="9.17935" x2="45.4241" y2="42.0522" gradientUnits="userSpaceOnUse">
<stop offset="0.552083" stop-color="#CB2376"/>
<stop offset="1" stop-color="#26008F"/>
</linearGradient>
<linearGradient id="paint2_linear_534_4464" x1="19.1661" y1="21.7102" x2="3.49243" y2="21.7102" gradientUnits="userSpaceOnUse">
<stop offset="0.21" stop-color="#CB2376"/>
<stop offset="1" stop-color="#26008F"/>
</linearGradient>
<clipPath id="clip0_534_4464">
<rect width="136" height="31.3203" fill="white"/>
</clipPath>
</defs>
</svg>
